# xmcd
#
# Track frame offsets:
#	150
#	15273
#	31455
#	46377
#	59815
#	73304
#	85667
#	104448
#	117306
#	137507
#
# Disc length: 1965 seconds
#
# Revision: 1
# Processed by: cddbd v1.5.2PL0 Copyright (c) Steve Scherf et al.
# Submitted via: audiograbber 1.83.01
#
DISCID=8807ab0a
DTITLE=Simone Oberstein - Bei mir
DYEAR=2011
DGENRE=Folk-Rock
TTITLE0=Mondschein
TTITLE1=The Rose
TTITLE2=Danny Boy
TTITLE3=Sommer
TTITLE4=Myself
TTITLE5=Und was auch kommen mag
TTITLE6=Amazing Grace
TTITLE7=Ziel meiner Träume
TTITLE8=I will always love you
TTITLE9=Bei mir
EXTD=
EXTT0=
EXTT1=
EXTT2=
EXTT3=
EXTT4=
EXTT5=
EXTT6=
EXTT7=
EXTT8=
EXTT9=
PLAYORDER=
